# xmcd CD database file
#
# Track frame offsets:
#	150
#	18300
#	39580
#
# Disc length: 870 seconds
#
# Revision: 0
# Processed by: cddbd v1.5PL3 Copyright (c) Steve Scherf et al.
# Submitted via: Feurio! 1.67 - http://www.feurio.com
#
DISCID=1a036403
DTITLE=Lynyrd Skynyrd - Sweet Home Alabama
DYEAR=1900
DGENRE=
TTITLE0=Sweet Home Alabama (Acoustc Version)
TTITLE1=Sweet Home Alabama (Original Version)
TTITLE2=The Last Rebel
EXTD=
EXTT0=
EXTT1=
EXTT2=
PLAYORDER=
